<?xml version="1.0" standalone="no"?>
<!DOCTYPE svg PUBLIC "-//W3C//DTD SVG 20010904//EN"
 "http://www.w3.org/TR/2001/REC-SVG-20010904/DTD/svg10.dtd">
<svg version="1.0" xmlns="http://www.w3.org/2000/svg"
 width="519.000000pt" height="600.000000pt" viewBox="0 0 519.000000 600.000000"
 preserveAspectRatio="xMidYMid meet">
<metadata>
Created by potrace 1.15, written by Peter Selinger 2001-2017
</metadata>
<g transform="translate(0.000000,600.000000) scale(0.100000,-0.100000)"
fill="#000000" stroke="none">
<path d="M1285 5256 l-1280 -742 0 -1519 0 -1519 1273 -738 c1082 -627 1279
-738 1312 -738 32 0 228 110 1302 732 694 402 1271 738 1281 746 16 14 17 99
17 1517 0 1418 -1 1503 -17 1517 -44 37 -2566 1488 -2585 1487 -13 0 -599
-334 -1303 -743z m2276 -144 c162 -43 294 -117 411 -230 l68 -65 72 27 c40 14
79 26 86 26 7 0 22 -20 34 -45 13 -27 25 -40 29 -33 18 28 178 -48 179 -86 0
-10 -18 -40 -40 -66 -47 -56 -50 -72 -12 -68 24 3 30 -3 51 -47 14 -27 26 -69
27 -93 1 -32 8 -47 28 -63 32 -25 33 -39 2 -68 l-25 -23 80 -60 c43 -33 79
-64 79 -68 0 -14 -152 -150 -236 -211 -82 -60 -83 -61 -94 -117 -68 -342 -229
-640 -485 -898 -138 -139 -254 -228 -445 -344 -228 -138 -442 -230 -660 -284
-369 -91 -706 -98 -1079 -25 -101 20 -106 20 -225 3 -66 -9 -179 -17 -251 -18
l-130 -1 -3 145 -3 146 -82 -1 -82 0 0 45 0 45 66 9 c52 7 67 13 75 30 6 14
21 23 44 26 l35 5 -32 14 c-39 16 -41 29 -11 77 21 31 26 34 53 28 70 -17 411
6 480 32 9 4 -7 17 -42 35 -136 72 -249 184 -312 310 -51 101 -50 119 4 135
22 6 39 17 37 24 -2 10 -42 60 -159 203 -24 28 -60 84 -80 124 -21 40 -42 73
-46 73 -5 0 -31 10 -58 21 -34 15 -49 27 -49 41 0 27 20 31 63 13 34 -14 37
-14 37 1 0 9 -7 31 -16 50 l-17 35 47 70 c26 38 53 72 60 75 7 3 32 -4 56 -15
25 -11 46 -18 48 -16 2 2 -14 27 -36 57 -51 68 -74 115 -103 208 -34 109 -32
254 5 367 14 44 35 92 45 104 l19 23 67 -26 c48 -19 73 -25 85 -18 13 7 23 3
40 -15 13 -14 33 -25 46 -25 28 0 47 -24 40 -48 -5 -14 3 -28 29 -51 20 -17
42 -31 51 -31 8 0 19 -11 24 -24 18 -47 204 -178 375 -264 126 -63 261 -113
392 -146 131 -34 133 -33 133 7 0 53 39 177 77 247 19 36 44 100 54 144 31
127 89 226 194 332 133 134 282 213 473 249 106 20 312 13 413 -13z m-1841
-3127 l0 -85 100 0 100 0 0 -50 0 -50 -100 0 -100 0 0 -145 c0 -132 2 -147 20
-165 11 -11 30 -20 43 -21 34 -2 79 1 110 7 27 6 27 5 27 -49 0 -54 -1 -56
-32 -63 -69 -15 -181 -8 -227 15 -69 36 -81 73 -81 264 l0 157 -70 0 -70 0 0
50 0 50 70 0 70 0 0 70 0 69 43 11 c23 6 47 13 52 15 41 15 45 7 45 -80z
m2350 0 l0 -85 100 0 100 0 0 -50 0 -50 -100 0 -100 0 0 -145 c0 -132 2 -147
20 -165 11 -11 30 -20 43 -21 34 -2 79 1 110 7 27 6 27 5 27 -49 0 -54 -1 -56
-32 -63 -69 -15 -181 -8 -227 15 -69 36 -81 73 -81 264 l0 157 -70 0 -70 0 0
50 0 50 70 0 70 0 0 70 0 69 43 11 c23 6 47 13 52 15 41 15 45 7 45 -80z
m-1062 -99 c68 -35 112 -127 112 -233 l0 -53 -175 0 c-170 0 -175 -1 -175 -20
0 -35 29 -79 63 -96 36 -19 148 -21 207 -4 50 15 50 15 50 -44 0 -63 2 -61
-113 -76 -167 -20 -264 18 -323 130 -25 47 -26 217 -1 272 22 48 72 105 110
125 64 33 180 33 245 -1z m590 0 c68 -35 112 -127 112 -233 l0 -53 -175 0
c-170 0 -175 -1 -175 -20 0 -35 29 -79 63 -96 36 -19 148 -21 207 -4 50 15 50
15 50 -44 0 -63 2 -61 -113 -76 -167 -20 -264 18 -323 130 -25 47 -26 217 -1
272 22 48 72 105 110 125 64 33 180 33 245 -1z m-2310 4 c39 -24 67 -83 75
-152 l5 -48 -68 0 -67 0 -6 36 c-14 84 -66 96 -132 29 l-45 -44 0 -171 0 -170
-70 0 -70 0 0 265 0 265 59 0 c58 0 60 -1 66 -31 6 -25 9 -28 18 -16 45 57
170 77 235 37z m845 -22 c4 -18 14 -98 23 -178 l18 -144 35 107 35 107 52 0
51 0 34 -100 c19 -55 36 -100 40 -100 3 0 11 55 18 123 6 67 14 143 18 170 l6
47 61 0 62 0 -37 -262 c-21 -145 -38 -264 -39 -265 0 -2 -33 -3 -74 -3 l-74 0
-35 103 -34 102 -34 -102 -33 -103 -76 0 -76 0 -33 238 c-18 130 -35 249 -38
265 l-5 27 65 0 65 0 5 -32z"/>
<path d="M3215 5084 c-270 -43 -478 -167 -599 -357 -31 -48 -76 -145 -76 -163
0 -19 80 69 108 117 140 248 474 402 777 360 114 -16 287 -67 380 -111 65 -31
75 -34 50 -14 -75 61 -202 119 -325 149 -66 16 -261 27 -315 19z"/>
<path d="M3075 4956 c-63 -20 -165 -75 -225 -121 -54 -42 -99 -85 -88 -85 8 0
113 66 188 119 34 24 90 56 124 72 65 30 66 36 1 15z"/>
<path d="M3256 4931 c-106 -24 -123 -35 -41 -28 74 6 217 -8 299 -29 97 -25
234 -95 319 -164 81 -65 105 -69 92 -17 -9 35 -119 144 -186 184 -74 44 -155
64 -284 69 -84 3 -131 -1 -199 -15z"/>
<path d="M4118 4792 c-44 -14 -48 -18 -48 -48 0 -17 6 -37 14 -43 11 -9 19 -5
41 21 25 30 29 31 58 20 17 -6 32 -10 34 -8 5 5 -38 76 -45 75 -4 0 -28 -8
-54 -17z"/>
<path d="M1072 4706 c-10 -22 -9 -23 11 -18 28 7 40 24 24 34 -19 12 -23 10
-35 -16z"/>
<path d="M3011 4690 c-74 -16 -243 -129 -254 -171 -6 -21 0 -19 48 17 50 37
175 92 260 115 55 14 115 21 193 22 79 1 105 4 85 10 -41 13 -281 18 -332 7z"/>
<path d="M4354 4678 l-19 -23 23 19 c21 18 27 26 19 26 -2 0 -12 -10 -23 -22z"/>
<path d="M3999 4671 c10 -10 21 -25 23 -32 3 -8 8 -11 12 -7 11 9 -23 58 -40
58 -10 0 -9 -5 5 -19z"/>
<path d="M1047 4634 c-14 -23 -24 -163 -16 -228 10 -80 29 -142 65 -206 l25
-45 -7 35 c-3 19 -13 48 -21 63 -37 72 -56 286 -30 328 7 12 8 25 1 40 -6 13
-13 18 -17 13z"/>
<path d="M1221 4604 c0 -11 3 -14 6 -6 3 7 2 16 -1 19 -3 4 -6 -2 -5 -13z"/>
<path d="M3083 4601 c-95 -24 -225 -87 -295 -145 l-58 -47 0 -72 c0 -40 7
-100 16 -132 24 -89 24 -99 -8 -103 -34 -4 -45 16 -68 126 -14 72 -18 81 -24
57 -4 -15 -1 -50 6 -77 8 -35 9 -51 1 -56 -6 -4 -8 -21 -6 -39 5 -30 8 -32 52
-35 44 -3 46 -4 46 -33 0 -27 -4 -30 -32 -33 -53 -5 -38 -22 20 -22 49 0 53
-2 66 -31 10 -22 11 -37 3 -52 -6 -12 -13 -30 -16 -39 -4 -15 -17 -18 -68 -18
-66 -1 -108 -21 -108 -54 0 -18 -129 -63 -153 -53 -9 3 -21 24 -28 47 -14 45
-9 43 -139 60 -112 15 -323 70 -436 113 -92 36 -248 112 -343 168 -45 27 -52
29 -43 12 16 -30 121 -123 159 -141 39 -19 41 -32 8 -79 l-24 -37 30 -18 c19
-11 29 -24 25 -33 -3 -9 3 -15 17 -17 20 -3 22 -9 22 -58 0 -63 7 -60 -116
-46 -62 7 -67 6 -72 -13 -3 -12 -15 -25 -27 -29 -19 -7 -15 -12 42 -55 57 -43
67 -46 103 -41 39 5 42 4 68 -36 15 -23 27 -48 27 -54 0 -21 76 -102 127 -134
62 -39 160 -72 217 -72 76 0 76 0 76 -110 0 -78 -3 -99 -15 -104 -12 -4 -8
-15 20 -52 40 -52 42 -58 17 -76 -10 -7 -21 -21 -25 -31 -3 -9 -22 -25 -42
-34 -33 -16 -51 -38 -21 -27 8 3 23 -8 36 -26 l22 -31 -21 -23 -21 -22 46 -63
45 -62 47 6 c296 40 495 100 732 221 176 91 295 178 445 329 262 261 403 542
450 898 6 45 5 47 -18 47 -40 0 -47 18 -32 88 7 35 15 66 18 69 4 3 0 17 -8
32 -9 18 -10 32 -4 44 7 12 6 17 -3 17 -16 0 -118 93 -118 108 0 16 -58 58
-115 82 -140 60 -353 77 -502 41z"/>
<path d="M1181 4373 c0 -10 4 -27 9 -38 7 -17 9 -15 9 12 1 17 -3 35 -9 38 -5
3 -10 -2 -9 -12z"/>
<path d="M4416 4331 c-21 -23 -6 -36 20 -16 14 10 16 17 8 25 -7 7 -15 5 -28
-9z"/>
<path d="M2421 4254 c0 -11 3 -14 6 -6 3 7 2 16 -1 19 -3 4 -6 -2 -5 -13z"/>
<path d="M2411 4214 c0 -11 3 -14 6 -6 3 7 2 16 -1 19 -3 4 -6 -2 -5 -13z"/>
<path d="M3920 4185 c0 -9 6 -12 15 -9 8 4 15 10 15 15 0 5 -7 9 -15 9 -8 0
-15 -7 -15 -15z"/>
<path d="M1380 4182 c0 -24 38 -87 71 -117 l32 -30 -24 33 c-13 18 -36 54 -51
80 -15 26 -28 41 -28 34z"/>
<path d="M4035 4180 c-3 -5 3 -10 15 -10 12 0 18 5 15 10 -3 6 -10 10 -15 10
-5 0 -12 -4 -15 -10z"/>
<path d="M4412 4094 c-79 -77 -93 -95 -90 -118 3 -27 5 -26 108 57 137 110
136 109 102 133 l-27 19 -93 -91z"/>
<path d="M2318 4043 c7 -3 16 -2 19 1 4 3 -2 6 -13 5 -11 0 -14 -3 -6 -6z"/>
<path d="M4043 4015 c0 -22 2 -30 4 -17 2 12 2 30 0 40 -3 9 -5 -1 -4 -23z"/>
<path d="M1235 4020 c3 -5 13 -10 21 -10 8 0 12 5 9 10 -3 6 -13 10 -21 10 -8
0 -12 -4 -9 -10z"/>
<path d="M1042 3997 c-25 -33 -23 -37 16 -37 50 0 64 24 22 38 -21 8 -31 7
-38 -1z"/>
<path d="M3906 3989 c-39 -190 -79 -307 -152 -449 -230 -442 -672 -777 -1204
-910 -63 -16 -162 -36 -219 -44 -57 -9 -106 -18 -110 -22 -10 -11 114 5 244
31 637 128 1174 555 1384 1100 46 118 87 293 73 307 -8 8 -12 5 -16 -13z"/>
<path d="M4236 3951 c-16 -18 -13 -51 5 -51 9 0 29 42 29 61 0 15 -16 10 -34
-10z"/>
<path d="M4021 3855 c-29 -149 -115 -374 -190 -502 -46 -78 -31 -64 27 25 67
102 106 182 131 267 25 86 54 242 48 258 -2 7 -9 -15 -16 -48z"/>
<path d="M1175 3870 c27 -12 43 -12 25 0 -8 5 -22 9 -30 9 -10 0 -8 -3 5 -9z"/>
<path d="M1010 3843 c0 -10 5 -25 10 -33 8 -13 11 -12 24 5 20 26 20 31 0 39
-26 10 -34 7 -34 -11z"/>
<path d="M4198 3752 c-21 -110 -59 -230 -108 -344 -21 -49 -36 -88 -34 -88 7
0 91 175 117 245 24 62 77 248 77 268 0 4 -8 7 -18 7 -15 0 -21 -16 -34 -88z"/>
<path d="M2470 3821 c0 -16 17 -21 49 -15 44 9 38 24 -9 24 -22 0 -40 -4 -40
-9z"/>
<path d="M1315 3770 c9 -17 20 -30 25 -30 14 0 -10 48 -26 54 -12 4 -11 0 1
-24z"/>
<path d="M1411 3744 c9 -9 25 -14 35 -12 14 3 10 7 -16 16 -32 12 -34 11 -19
-4z"/>
<path d="M1385 3660 c10 -11 22 -20 27 -20 4 0 3 9 -4 20 -7 11 -19 20 -27 20
-11 0 -10 -5 4 -20z"/>
<path d="M1590 3500 c8 -5 24 -9 35 -9 l20 0 -20 9 c-11 5 -27 9 -35 9 -13 1
-13 0 0 -9z"/>
<path d="M1550 3435 c0 -4 9 -20 21 -36 36 -51 103 -33 70 19 -9 14 -91 30
-91 17z"/>
<path d="M1700 3405 c0 -29 15 -47 35 -43 16 3 15 6 -8 33 -23 26 -26 28 -27
10z"/>
<path d="M1797 3306 c-4 -9 -24 -19 -46 -22 -71 -11 -52 -50 29 -56 27 -2 36
-8 38 -25 2 -14 16 -27 44 -38 56 -22 156 -45 201 -45 l37 0 0 50 c0 49 0 49
-37 55 -70 12 -147 37 -198 63 -27 15 -53 28 -56 30 -4 2 -9 -4 -12 -12z"/>
<path d="M1235 3268 c10 -30 73 -136 88 -145 6 -3 1 7 -11 25 -13 17 -34 56
-48 86 -26 57 -41 74 -29 34z"/>
<path d="M1750 3145 c14 -7 27 -11 30 -9 6 7 -22 24 -40 23 -9 0 -5 -6 10 -14z"/>
<path d="M1848 3108 c5 -5 16 -8 23 -6 8 3 3 7 -10 11 -17 4 -21 3 -13 -5z"/>
<path d="M2050 3050 c0 -23 6 -24 39 -6 l23 13 -23 6 c-36 10 -39 9 -39 -13z"/>
<path d="M1763 2985 c57 -33 100 -43 129 -30 26 10 24 12 -40 23 -37 6 -78 14
-92 17 -24 6 -24 5 3 -10z"/>
<path d="M2035 2960 c-49 -22 -56 -29 -41 -35 22 -10 130 40 121 55 -8 13 -11
13 -80 -20z"/>
<path d="M3195 2834 c-71 -50 -313 -168 -425 -209 -52 -19 -89 -34 -81 -35 28
-1 194 61 282 105 99 50 265 150 274 165 9 14 5 12 -50 -26z"/>
<path d="M1585 2809 c-44 -10 -125 -23 -180 -30 -55 -6 -111 -15 -125 -19
l-25 -8 29 -7 c63 -17 416 51 400 76 -3 5 -8 8 -12 8 -4 -1 -43 -10 -87 -20z"/>
<path d="M1080 2760 c0 -5 7 -10 16 -10 8 0 12 5 9 10 -3 6 -10 10 -16 10 -5
0 -9 -4 -9 -10z"/>
<path d="M1918 2671 l-117 -48 122 -6 c67 -3 139 -3 160 1 l38 7 -33 47 c-18
26 -37 48 -43 47 -5 0 -63 -22 -127 -48z"/>
<path d="M1748 2573 c6 -2 18 -2 25 0 6 3 1 5 -13 5 -14 0 -19 -2 -12 -5z"/>
<path d="M1825 2559 c51 -10 296 -11 311 -1 7 4 -70 7 -170 8 -111 0 -166 -2
-141 -7z"/>
<path d="M1115 2510 c-8 -14 100 -62 260 -116 122 -41 185 -54 185 -36 0 4
-47 22 -105 40 -57 19 -148 54 -201 78 -101 45 -128 52 -139 34z"/>
<path d="M1070 2379 l0 -82 108 7 c156 11 222 21 197 31 -11 4 -58 23 -105 40
-47 18 -111 45 -142 59 l-58 26 0 -81z"/>
<path d="M1666 2321 c15 -15 238 -40 394 -45 l145 -5 -162 14 c-89 7 -202 21
-252 29 -104 18 -139 20 -125 7z"/>
<path d="M2821 1794 c-19 -14 -51 -69 -51 -89 0 -3 47 -5 105 -5 58 0 105 4
105 9 0 4 -5 22 -11 40 -19 55 -99 79 -148 45z"/>
<path d="M3411 1794 c-19 -14 -51 -69 -51 -89 0 -3 47 -5 105 -5 58 0 105 4
105 9 0 4 -5 22 -11 40 -19 55 -99 79 -148 45z"/>
</g>
</svg>
